<svg width="32" height="32" viewBox="0 0 32 32" fill="none" xmlns="http://www.w3.org/2000/svg">
  <path d="M6 4C5.46957 4 4.96086 4.21071 4.58579 4.58579C4.21071 4.96086 4 5.46957 4 6V26C4 26.5304 4.21071 27.0391 4.58579 27.4142C4.96086 27.7893 5.46957 28 6 28H26C26.5304 28 27.0391 27.7893 27.4142 27.4142C27.7893 27.0391 28 26.5304 28 26V6C28 5.46957 27.7893 4.96086 27.4142 4.58579C27.0391 4.21071 26.5304 4 26 4H6Z" fill="#7C3AED"/>
  <path d="M8 8H24V24H8V8Z" fill="#8B5CF6"/>
  <path d="M16 6V26" stroke="#5B21B6" stroke-width="2"/>
  <path d="M10 12H14" stroke="#FFFFFF" stroke-width="1.5" stroke-linecap="round"/>
  <path d="M10 16H14" stroke="#FFFFFF" stroke-width="1.5" stroke-linecap="round"/>
  <path d="M10 20H14" stroke="#FFFFFF" stroke-width="1.5" stroke-linecap="round"/>
  <path d="M18 12H22" stroke="#FFFFFF" stroke-width="1.5" stroke-linecap="round"/>
  <path d="M18 16H22" stroke="#FFFFFF" stroke-width="1.5" stroke-linecap="round"/>
  <path d="M18 20H22" stroke="#FFFFFF" stroke-width="1.5" stroke-linecap="round"/>
</svg>
